<svg width="505" height="300" viewBox="0 0 505 300" fill="none" xmlns="http://www.w3.org/2000/svg">
<path d="M236.39 265.19C164.28 265.19 92.18 265.09 20.08 265.3C10.11 265.33 2.76001 258.23 2.82001 247.98C2.90001 233.19 2.86999 218.39 2.86999 203.6C2.83999 142.32 2.84003 81.03 2.84003 19.76C2.84003 8.40001 9.41001 1.79001 20.82 1.79001C65.96 1.78001 111.09 1.79001 156.23 1.79001C223.68 1.78001 291.12 1.76001 358.57 1.76001C389.76 1.76001 420.95 1.85002 452.14 1.74002C463.2 1.70002 469.79 9.38003 469.77 19.46C469.55 95.95 469.66 172.45 469.66 248.95C469.66 256.91 465.05 263 457.75 264.85C456.08 265.27 454.39 265.18 452.71 265.18C380.6 265.19 308.49 265.19 236.39 265.19ZM236.33 248.13C285.45 248.13 334.56 248.13 383.68 248.13C387.56 248.13 387.56 248.13 388.14 244.22C389.55 234.64 392.85 225.71 397.96 217.53C409.91 198.4 427.11 186.89 449.31 182.99C452.03 182.51 452.65 181.59 452.65 178.99C452.54 149.15 452.59 119.31 452.59 89.46C452.59 83.92 452.59 83.92 447.04 82.93C446.79 82.89 446.55 82.82 446.3 82.76C416.35 76.75 393.01 52.47 388.23 22.29C387.86 19.95 387.06 19.04 384.54 19.07C372.64 19.21 360.74 19.13 348.84 19.13C262.36 19.13 175.88 19.13 89.39 19.13C88.63 19.13 87.87 19.18 87.11 19.13C85.65 19.04 84.96 19.73 84.72 21.13C84.33 23.38 83.92 25.62 83.4 27.84C76.79 56.16 52.79 78.55 24.09 83.14C20.28 83.75 20.28 83.75 20.28 87.67C20.28 117.68 20.28 147.69 20.28 177.7C20.28 182.23 20.28 182.23 24.8 183.17C25.71 183.36 26.62 183.55 27.53 183.75C44 187.48 57.66 195.79 68.5 208.76C77.34 219.34 82.68 231.47 84.71 245.07C85.04 247.27 85.8 248.17 88.23 248.16C137.59 248.11 186.96 248.13 236.33 248.13ZM452.6 224.26C452.6 217.25 452.6 210.25 452.6 203.24C452.59 200.06 452.52 200.01 449.49 200.6C427.57 204.92 409.61 223.22 405.6 245.18C405.19 247.41 405.48 248.2 407.92 248.18C421.85 248.08 435.78 248.11 449.71 248.18C451.89 248.19 452.67 247.53 452.64 245.29C452.51 238.27 452.6 231.26 452.6 224.26ZM43.98 248.13C50.99 248.13 58.01 248.09 65.02 248.16C66.99 248.18 67.66 247.82 67.27 245.58C63.43 223.62 45.28 204.99 23.36 200.6C20.42 200.01 20.28 200.09 20.28 203.02C20.27 217.13 20.33 231.25 20.22 245.36C20.2 247.68 21.05 248.21 23.19 248.17C30.12 248.07 37.05 248.13 43.98 248.13ZM429.1 19.14C422.09 19.14 415.08 19.2 408.08 19.1C405.97 19.07 405.31 19.52 405.72 21.8C409.54 43 428.34 61.9 449.63 65.87C451.84 66.28 452.65 65.77 452.64 63.39C452.57 49.54 452.56 35.7 452.64 21.85C452.65 19.73 451.95 19.07 449.87 19.1C442.95 19.2 436.02 19.14 429.1 19.14ZM20.27 42.61C20.27 49.62 20.32 56.64 20.24 63.65C20.21 65.79 21.06 66.4 23 65.89C24.79 65.41 26.61 65 28.37 64.41C49.19 57.32 62 42.99 67.1 21.64C67.53 19.8 67.19 19.09 65.1 19.11C51.08 19.19 37.05 19.21 23.03 19.1C20.69 19.08 20.2 19.97 20.23 22.09C20.34 28.92 20.27 35.76 20.27 42.61Z" fill="#D5BAFF"/>
<path d="M269.89 298.66C197.86 298.66 125.83 298.66 53.82 298.68C50.45 298.68 47.4601 298.02 45.2801 295.18C41.4201 290.13 44.33 282.63 50.58 281.62C51.99 281.39 53.44 281.3 54.87 281.3C124.69 281.3 194.52 281.29 264.35 281.29C323.35 281.29 382.35 281.29 441.35 281.29C454.87 281.29 468.39 281.29 481.91 281.29C485.67 281.29 485.67 281.28 485.67 277.49C485.67 202.67 485.67 127.86 485.66 53.05C485.66 50.21 485.85 47.49 487.96 45.26C490.64 42.43 493.84 41.62 497.43 42.96C500.95 44.27 502.67 47.1 503.03 50.74C503.19 52.33 503.08 53.95 503.08 55.56C503.08 130.62 503.08 205.69 503.08 280.77C503.08 292.33 496.74 298.68 485.2 298.68C413.44 298.67 341.66 298.66 269.89 298.66Z" fill="#005CBB"/>
<path d="M239.73 236.42C215.47 236.22 197 229.74 180.69 217.14C164.39 204.55 153.17 188.3 146.6 168.83C138.05 143.5 138.73 118.32 148.35 93.46C154.69 77.08 164.67 63.14 178.23 51.97C191.27 41.22 206.18 34.18 222.95 31.78C246.72 28.36 268.69 33.52 288.31 47.43C313.54 65.31 327.21 90.18 331.19 120.57C333.82 140.66 330.84 160.09 322.41 178.42C310.28 204.77 290.74 223.37 262.83 232.41C254.21 235.2 245.29 236.72 239.73 236.42ZM158.08 133.59C157.82 139.05 158.44 144.43 159.44 149.74C163.64 172.03 174.19 190.52 192.51 204.26C209.52 217.02 228.61 221.75 249.42 217.82C275.15 212.96 293.16 197.51 305 174.67C313 159.23 315.84 142.64 314.25 125.28C312.17 102.51 303.08 83.05 286.14 67.71C270.34 53.4 251.6 46.66 230.06 48.47C212.57 49.94 197.61 57.05 185.12 69.08C166.91 86.61 158.35 108.43 158.08 133.59Z" fill="#005CBB"/>
<path d="M212.59 104.498C212.59 104.498 247.1 146.978 260.02 163.708C271.8 178.968 259.18 198.438 238.46 201.498C222.67 203.828 199.15 188.528 217.56 163.448" stroke="#005CBB" stroke-width="17" stroke-linecap="round" stroke-linejoin="round"/>
<path d="M214.21 127.741C207.685 118.709 207.061 103.751 212.725 95.9365C218.45 88.0376 231.757 83.3711 241.566 85.8354C252.516 88.5655 259.82 97.4349 261.213 109.594C261.985 116.255 259.752 122.041 255.987 127.293C254.111 129.902 251.906 133.486 248.143 130.514C245.068 128.087 241.463 125.208 243.297 120.237C243.86 118.709 245.029 117.387 245.479 115.843C247.089 110.327 246.073 105.367 241.167 101.993C236.208 98.5829 231.141 99.2914 226.906 103.357C222.523 107.559 222.25 112.854 225.619 117.578C233.9 129.182 242.264 140.747 251.232 151.819C260.619 164.14 262.163 167.211 263.283 173.371C263.475 174.354 263.501 178.22 263.238 179.183C259.156 194.614 240.1 204.327 225.091 198.698C210.279 193.146 204.24 177.178 211.391 161.96C213.185 158.147 215.404 152.459 220.591 154.894C225.329 157.117 229.28 161.665 225.108 168.302C221.475 174.093 223.007 179.604 228.274 183.52C233.125 187.137 238.323 185.954 242.533 182.12C247.7 177.414 247.069 171.836 243.308 166.594C238.182 159.462 218.552 133.736 214.21 127.741Z" fill="#D5BAFF"/>
<path d="M199.081 94.2651C193.631 94.1851 189.801 90.3651 189.811 85.0351C189.821 79.3551 193.761 75.3151 199.301 75.3151C204.891 75.3151 208.811 79.3251 208.741 84.9651C208.671 90.8751 205.041 94.3651 199.081 94.2651Z" fill="#005CBB"/>
</svg>
