<svg width="76" height="114" viewBox="0 0 76 114" fill="none" xmlns="http://www.w3.org/2000/svg">
<path d="M27.8981 24.8884C27.8981 24.8884 53.7308 59.847 63.4002 73.6107C72.2238 86.1706 62.7731 102.196 47.2597 104.713C35.4433 106.63 17.8352 94.0393 31.6132 73.4031" stroke="#005CBB" stroke-width="17" stroke-linecap="round" stroke-linejoin="round"/>
<path d="M29.1124 44.0141C24.2234 36.5844 23.7602 24.2736 27.9979 17.8398C32.2797 11.3391 42.2436 7.50351 49.5876 9.52261C57.7804 11.7752 63.2507 19.0778 64.2978 29.0784C64.8722 34.5641 63.2013 39.3209 60.3804 43.6468C58.9813 45.7924 57.3234 48.7412 54.5097 46.2968C52.2119 44.3006 49.5115 41.9282 50.8818 37.8371C51.3021 36.5821 52.1761 35.4929 52.5158 34.2256C53.7204 29.6842 52.9598 25.6034 49.2877 22.8249C45.5754 20.016 41.7823 20.6071 38.6129 23.9466C35.3316 27.404 35.1246 31.7607 37.6509 35.6516C43.8491 45.1974 50.1108 54.7164 56.8191 63.8293C63.8477 73.9716 65.0036 76.4986 65.8473 81.5656C65.984 82.375 66.0086 85.5578 65.8117 86.3515C62.7562 99.0503 48.4894 107.044 37.2514 102.412C26.1655 97.8423 21.643 84.7024 27.0007 72.1765C28.3417 69.0415 29.9998 64.3596 33.8837 66.3607C37.4363 68.1912 40.3882 71.9354 37.2689 77.3913C34.5423 82.1604 35.6912 86.6971 39.6365 89.9239C43.2696 92.8954 47.1625 91.9245 50.3112 88.7668C54.1767 84.8905 53.7081 80.301 50.8897 75.9873C47.0565 70.1207 32.3591 48.9482 29.1124 44.0141Z" fill="#D5BAFF"/>
<path d="M17.7838 16.4687C13.7049 16.3992 10.8351 13.2572 10.8434 8.87176C10.8523 4.19527 13.799 0.871063 17.9461 0.871063C22.1316 0.871063 25.0667 4.16712 25.0146 8.81539C24.96 13.675 22.2469 16.5448 17.7838 16.4687Z" fill="#005CBB"/>
</svg>
