<svg width="192" height="206" viewBox="0 0 192 206" fill="none" xmlns="http://www.w3.org/2000/svg">
<path d="M99.3557 205.813C75.0963 205.613 56.6273 199.133 40.3171 186.534C24.0181 173.943 12.7988 157.694 6.22805 138.225C-2.32065 112.895 -1.64277 87.7155 7.97793 62.8565C14.3171 46.4766 24.2973 32.5368 37.8573 21.3575C50.8967 10.6074 65.8062 3.57583 82.5761 1.16803C106.345 -2.24487 128.316 2.90725 147.935 16.8176C173.165 34.7063 186.834 59.5764 190.814 89.9658C193.444 110.055 190.467 129.486 182.034 147.814C169.909 174.166 150.367 192.761 122.455 201.803C113.836 204.595 104.916 206.113 99.3557 205.813ZM17.7077 102.986C17.4477 108.445 18.0674 113.825 19.0677 119.135C23.2665 141.425 33.818 159.913 52.1369 173.654C69.1471 186.413 88.2361 191.144 109.046 187.214C134.775 182.354 152.787 166.905 164.624 144.065C172.626 128.626 175.462 112.036 173.874 94.6758C171.791 71.9066 162.704 52.4374 145.765 37.0971C129.964 22.7881 111.225 16.0474 89.686 17.8576C72.1964 19.3274 57.2341 26.4446 44.747 38.4671C26.5337 56.0027 17.9777 77.8261 17.7077 102.986Z" fill="#005CBB"/>
<path d="M72.2178 73.8919C72.2178 73.8919 106.726 116.371 119.643 133.095C131.429 148.357 118.805 167.83 98.0816 170.888C82.2969 173.218 58.7755 157.918 77.1806 132.843" stroke="#005CBB" stroke-width="17" stroke-linecap="round" stroke-linejoin="round"/>
<path d="M73.84 97.132C67.3091 88.1039 66.6903 73.1448 72.3512 65.327C78.071 57.4279 91.381 52.7672 101.191 55.2206C112.135 57.9578 119.443 66.8313 120.842 78.9832C121.609 85.6491 119.377 91.4291 115.609 96.6856C113.74 99.2928 111.525 102.876 107.766 99.9057C104.697 97.48 101.09 94.5973 102.92 89.6261C103.482 88.1011 104.649 86.7776 105.103 85.2378C106.712 79.7194 105.696 74.7607 100.791 71.3845C95.8317 67.9713 90.7648 68.6897 86.531 72.7475C82.1477 76.9487 81.8713 82.2425 85.246 86.9704C93.5256 98.5697 101.89 110.137 110.851 121.21C120.24 133.534 121.784 136.604 122.911 142.761C123.094 143.745 123.127 147.612 122.864 148.577C118.782 164.007 99.7243 173.721 84.7123 168.092C69.9034 162.54 63.8621 146.573 71.0191 131.353C72.8105 127.543 75.0253 121.854 80.2136 124.286C84.9592 126.51 88.9025 131.06 84.7357 137.689C81.0934 143.484 82.6282 148.997 87.8984 152.918C92.7515 156.528 97.9518 155.349 102.158 151.512C107.322 146.802 106.696 141.225 102.931 135.983C97.8102 128.855 78.1771 103.127 73.84 97.132Z" fill="#D5BAFF"/>
<path d="M58.7069 63.661C53.2583 63.5765 49.4247 59.7586 49.4358 54.4298C49.4476 48.7473 53.3839 44.708 58.9237 44.708C64.5149 44.708 68.4357 48.7131 68.366 54.3613C68.2931 60.2663 64.6689 63.7535 58.7069 63.661Z" fill="#005CBB"/>
</svg>
